<svg width="1600" height="800" xmlns="http://www.w3.org/2000/svg">

 <g>
  <title>background</title>
  <rect fill="none" id="canvas_background" height="402" width="582" y="-1" x="-1"/>
 </g>
 <g>
  <title>Layer 1</title>
  <rect fill-opacity="0" x="0" y="-1" id="svg_1" height="800" width="1600" fill="#ffffff"/>
  <g id="svg_2">
   <path fill-opacity="0" id="svg_3" d="m486,705.8c-109.3,-21.8 -223.4,-32.2 -335.3,-19.4c-51.2,5.7 -101.7,16.6 -150.7,33.4l0,80.2l843.8,0c-115.9,-33.2 -230.8,-68.1 -347.6,-92.2c-3.4,-0.7 -6.8,-1.3 -10.2,-2z" fill="#ffffff"/>
   <path fill-opacity="0.3" id="svg_5" d="m478.4,581c3.2,0.8 6.4,1.7 9.5,2.5c196.2,52.5 388.7,133.5 593.5,176.6c174.2,36.6 349.5,29.2 518.6,-10.2l0,-749.9l-1600,0l0,574.9c52.3,-17.6 106.5,-27.7 161.1,-30.9c107.3,-6.6 214.6,10.2 317.3,37z" fill="#ffffff"/>
   <path fill-opacity="0.1" id="svg_6" d="m0,0l0,429.4c55.6,-18.4 113.5,-27.3 171.4,-27.7c102.8,-0.8 203.2,22.7 299.3,54.5c3,1 5.9,2 8.9,3c183.6,62 365.7,146.1 562.4,192.1c186.7,43.7 376.3,34.4 557.9,-12.6l0,-638.7l-1599.9,0z" fill="#ffffff"/>
   <path fill-opacity="0.2" id="svg_7" d="m181.8,259.4c98.2,6 191.9,35.2 281.3,72.1c2.8,1.1 5.5,2.3 8.3,3.4c171,71.6 342.7,158.5 531.3,207.7c198.8,51.8 403.4,40.8 597.3,-14.8l0,-527.8l-1600,0l0,283.2c59,-19.6 120.6,-27.5 181.8,-23.8z" fill="#ffffff"/>
   <path fill-opacity="0.3" id="svg_8" d="m1600,0l-1600,0l0,136.3c62.3,-20.9 127.7,-27.5 192.2,-19.2c93.6,12.1 180.5,47.7 263.3,89.6c2.6,1.3 5.1,2.6 7.7,3.9c158.4,81.1 319.7,170.9 500.3,223.2c210.5,61 430.8,49 636.6,-16.6l0,-417.2l-0.1,0z" fill="#ffffff"/>
   <path fill-opacity="0.4" id="svg_9" d="m454.9,86.3c145.8,90.7 296.7,183 469.2,238.7c208.6,67.4 431.3,60.8 637.9,-5.3c12.8,-4.1 25.4,-8.4 38.1,-12.9l0,-306.8l-1312,0c56,21.3 108.7,50.6 159.7,82c2.4,1.4 4.7,2.9 7.1,4.3z" fill="#ffffff"/>
   <path fill-opacity="0.5" id="svg_10" d="m1600,0l-1102,0c118.1,85.8 243.5,164.5 386.8,216.2c191.8,69.2 400,74.7 595,21.1c40.8,-11.2 81.1,-25.2 120.3,-41.7l0,-195.6l-0.1,0z" fill="#ffffff"/>
   <path fill-opacity="0.6" id="svg_11" d="m1397.5,154.8c47.2,-10.6 93.6,-25.3 138.6,-43.8c21.7,-8.9 43,-18.8 63.9,-29.5l0,-81.5l-956.6,0c62.9,41.7 129.7,78.2 202.1,107.4c174.9,70.7 368.7,88.7 552,47.4z" fill="#ffffff"/>
   <path fill-opacity="0.7" id="svg_12" d="m1315.3,72.4c75.3,-12.6 148.9,-37.1 216.8,-72.4l-723,0c157.7,71 335.6,101 506.2,72.4z" fill="#ffffff"/>
  </g>
 </g>
</svg>